# xmcd
# Copyright (C) 1995-1998 Ti Kan
#
# Track frame offsets:
#       150
#       10831
#       49411
#       78492
#       105667
#       116332
#       136796
#       169908
#       194551
#       239544
#       276311
#
# Disc length: 4251 seconds
#
# Revision: 0
# Processed by: cddbd v1.5.2PL0 Copyright (c) Steve Scherf et al.
# Submitted via: CD-Import v1.0
#
DISCID=9810990b
DTITLE=1giant Leap - What About Me
DYEAR=1900
DGENRE=
TTITLE0=Come To The Edge
TTITLE1=Each Step Moves Us On
TTITLE2=How Can I Be Better Friend Of You
TTITLE3=There's Nothing Wrong With Me
TTITLE4=Are You My Love?
TTITLE5=Wounded In All The Right Places
TTITLE6=I Have Seen Trouble
TTITLE7=Solita Sin Solidad
TTITLE8=Serenity Prayer
TTITLE9=1 Small Step
TTITLE10=Why Must I Feel Like This Today
EXTD=
EXTT0=
EXTT1=
EXTT2=
EXTT3=
EXTT4=
EXTT5=
EXTT6=
EXTT7=
EXTT8=
EXTT9=
EXTT10=
PLAYORDER=
